<svg width="16" height="16" viewBox="0 0 16 16" fill="none" xmlns="http://www.w3.org/2000/svg">
<g id="Frame" clip-path="url(#clip0_37_100)">
<path id="iconFill" d="M10.6667 11.5555C11.1576 11.5555 11.5556 11.1576 11.5556 10.6667C11.5556 10.1757 11.1576 9.77777 10.6667 9.77777C10.1758 9.77777 9.77783 10.1757 9.77783 10.6667C9.77783 11.1576 10.1758 11.5555 10.6667 11.5555Z" fill="#222222"/>
<path id="iconFill_2" d="M10.6667 6.22224C11.1576 6.22224 11.5556 5.82427 11.5556 5.33335C11.5556 4.84243 11.1576 4.44446 10.6667 4.44446C10.1758 4.44446 9.77783 4.84243 9.77783 5.33335C9.77783 5.82427 10.1758 6.22224 10.6667 6.22224Z" fill="#222222"/>
<path id="iconFill_3" fill-rule="evenodd" clip-rule="evenodd" d="M8.00003 0.888885C6.59359 0.888885 5.21872 1.30594 4.04931 2.08732C2.87989 2.8687 1.96844 3.97931 1.43022 5.27869C0.891997 6.57808 0.751173 8.00788 1.02556 9.38731C1.29994 10.7667 1.97721 12.0338 2.97172 13.0283C3.96622 14.0228 5.2333 14.7001 6.61272 14.9745C7.99214 15.2489 9.42195 15.108 10.7213 14.5698C12.0207 14.0316 13.1313 13.1201 13.9127 11.9507C14.6941 10.7813 15.1111 9.40644 15.1111 8C15.1111 6.11401 14.3619 4.30527 13.0283 2.97168C11.6948 1.63809 9.88601 0.888885 8.00003 0.888885ZM6.31114 8C6.30922 8.10185 6.29896 8.20337 6.28047 8.30355L9.18136 9.548C9.46742 9.15899 9.8866 8.88881 10.359 8.78895C10.8315 8.68908 11.3241 8.76651 11.7431 9.00648C12.1621 9.24645 12.4782 9.63218 12.6312 10.0902C12.7841 10.5482 12.7632 11.0465 12.5724 11.49C12.3817 11.9336 12.0344 12.2915 11.5967 12.4956C11.1591 12.6996 10.6617 12.7355 10.1993 12.5964C9.73688 12.4573 9.34181 12.153 9.08934 11.7414C8.83687 11.3298 8.74465 10.8397 8.83025 10.3644L5.92892 9.12C5.69385 9.43342 5.36613 9.66494 4.99217 9.78175C4.61821 9.89857 4.21697 9.89476 3.84529 9.77087C3.47362 9.64698 3.15035 9.40928 2.92127 9.09146C2.69219 8.77363 2.56892 8.39178 2.56892 8C2.56892 7.60822 2.69219 7.22637 2.92127 6.90854C3.15035 6.59071 3.47362 6.35301 3.84529 6.22912C4.21697 6.10523 4.61821 6.10142 4.99217 6.21824C5.36613 6.33505 5.69385 6.56657 5.92892 6.88L8.83025 5.63555C8.7539 5.1834 8.84587 4.71895 9.08878 4.33002C9.33168 3.9411 9.70869 3.65466 10.1485 3.52488C10.5883 3.3951 11.0604 3.43097 11.4755 3.62572C11.8907 3.82046 12.2201 4.16058 12.4014 4.58174C12.5828 5.00291 12.6035 5.47592 12.4597 5.91134C12.3159 6.34676 12.0176 6.7144 11.621 6.94472C11.2245 7.17505 10.7574 7.2521 10.3079 7.16131C9.85844 7.07052 9.45782 6.81817 9.18181 6.452L6.28047 7.69644C6.29896 7.79662 6.30922 7.89814 6.31114 8Z" fill="#222222"/>
</g>
<defs>
<clipPath id="clip0_37_100">
<rect width="16" height="16" fill="white"/>
</clipPath>
</defs>
</svg>
