<svg width="16" height="16" viewBox="0 0 16 16" fill="none" xmlns="http://www.w3.org/2000/svg">
<g id="Frame" clip-path="url(#clip0_37_18)">
<path id="iconFill" fill-rule="evenodd" clip-rule="evenodd" d="M7.28892 15.8196L1.25469 12.4671C1.14381 12.4055 1.05142 12.3154 0.987107 12.2061C0.922792 12.0967 0.88889 11.9722 0.888916 11.8453V5.86401L7.28892 9.41957V15.8196Z" fill="#222222"/>
<path id="iconFill_2" fill-rule="evenodd" clip-rule="evenodd" d="M14.7453 12.4671L8.71106 15.8196V9.41957L15.1111 5.86401V11.8453C15.1111 11.9722 15.0772 12.0967 15.0129 12.2061C14.9486 12.3154 14.8562 12.4055 14.7453 12.4671Z" fill="#222222"/>
<path id="iconFill_3" fill-rule="evenodd" clip-rule="evenodd" d="M10.9498 1.65199L8.33873 0.237771C8.23473 0.181445 8.11833 0.151947 8.00006 0.151947C7.88179 0.151947 7.76539 0.181445 7.66139 0.237771L1.15206 3.76355C1.09396 3.795 1.04544 3.84157 1.01163 3.89833C0.977811 3.95509 0.959961 4.01993 0.959961 4.08599C0.959961 4.15206 0.977811 4.2169 1.01163 4.27366C1.04544 4.33042 1.09396 4.37698 1.15206 4.40844L3.60939 5.73955L10.9498 1.65199Z" fill="#222222"/>
<path id="iconFill_4" fill-rule="evenodd" clip-rule="evenodd" d="M14.848 3.76357L12.4311 2.45468L5.09106 6.54357L7.99995 8.11779L14.848 4.40846C14.9061 4.377 14.9546 4.33044 14.9884 4.27368C15.0222 4.21692 15.0401 4.15208 15.0401 4.08601C15.0401 4.01995 15.0222 3.95511 14.9884 3.89835C14.9546 3.84159 14.9061 3.79502 14.848 3.76357Z" fill="#222222"/>
</g>
<defs>
<clipPath id="clip0_37_18">
<rect width="16" height="16" fill="white"/>
</clipPath>
</defs>
</svg>
